<svg width="18" height="18" viewBox="0 0 18 18" fill="none" xmlns="http://www.w3.org/2000/svg">
<path d="M6.96094 1.61719V2.67188H11.1797V1.61719C11.1797 1.0348 11.651 0.5625 12.2344 0.5625C12.8177 0.5625 13.2891 1.0348 13.2891 1.61719V2.67188H14.8711C15.7445 2.67188 16.4531 3.38016 16.4531 4.25391V5.83594H1.6875V4.25391C1.6875 3.38016 2.39579 2.67188 3.26953 2.67188H4.85156V1.61719C4.85156 1.0348 5.32288 0.5625 5.90625 0.5625C6.48962 0.5625 6.96094 1.0348 6.96094 1.61719ZM1.6875 6.89062H16.4531V15.8555C16.4531 16.7289 15.7445 17.4375 14.8711 17.4375H3.26953C2.39579 17.4375 1.6875 16.7289 1.6875 15.8555V6.89062ZM4.32422 9C4.03286 9 3.79688 9.2373 3.79688 9.52734V12.6914C3.79688 12.9814 4.03286 13.2188 4.32422 13.2188H7.48828C7.77832 13.2188 8.01562 12.9814 8.01562 12.6914V9.52734C8.01562 9.2373 7.77832 9 7.48828 9H4.32422Z" fill="#3A536B"/>
</svg>
