<svg width="18" height="18" viewBox="0 0 18 18" fill="none" xmlns="http://www.w3.org/2000/svg">
<path d="M13.8867 0.5625C14.7601 0.5625 15.4688 1.27079 15.4688 2.14453V15.8555C15.4688 16.7289 14.7601 17.4375 13.8867 17.4375H10.7227V14.8008C10.7227 13.9274 10.014 13.2188 9.14062 13.2188C8.26721 13.2188 7.55859 13.9274 7.55859 14.8008V17.4375H4.39453C3.52079 17.4375 2.8125 16.7289 2.8125 15.8555V2.14453C2.8125 1.27079 3.52079 0.5625 4.39453 0.5625H13.8867ZM4.92188 9.52734C4.92188 9.81738 5.15786 10.0547 5.44922 10.0547H6.50391C6.79395 10.0547 7.03125 9.81738 7.03125 9.52734V8.47266C7.03125 8.18262 6.79395 7.94531 6.50391 7.94531H5.44922C5.15786 7.94531 4.92188 8.18262 4.92188 8.47266V9.52734ZM8.61328 7.94531C8.32324 7.94531 8.08594 8.18262 8.08594 8.47266V9.52734C8.08594 9.81738 8.32324 10.0547 8.61328 10.0547H9.66797C9.95801 10.0547 10.1953 9.81738 10.1953 9.52734V8.47266C10.1953 8.18262 9.95801 7.94531 9.66797 7.94531H8.61328ZM11.25 9.52734C11.25 9.81738 11.4873 10.0547 11.7773 10.0547H12.832C13.1221 10.0547 13.3594 9.81738 13.3594 9.52734V8.47266C13.3594 8.18262 13.1221 7.94531 12.832 7.94531H11.7773C11.4873 7.94531 11.25 8.18262 11.25 8.47266V9.52734ZM5.44922 3.72656C5.15786 3.72656 4.92188 3.96387 4.92188 4.25391V5.30859C4.92188 5.59863 5.15786 5.83594 5.44922 5.83594H6.50391C6.79395 5.83594 7.03125 5.59863 7.03125 5.30859V4.25391C7.03125 3.96387 6.79395 3.72656 6.50391 3.72656H5.44922ZM8.08594 5.30859C8.08594 5.59863 8.32324 5.83594 8.61328 5.83594H9.66797C9.95801 5.83594 10.1953 5.59863 10.1953 5.30859V4.25391C10.1953 3.96387 9.95801 3.72656 9.66797 3.72656H8.61328C8.32324 3.72656 8.08594 3.96387 8.08594 4.25391V5.30859ZM11.7773 3.72656C11.4873 3.72656 11.25 3.96387 11.25 4.25391V5.30859C11.25 5.59863 11.4873 5.83594 11.7773 5.83594H12.832C13.1221 5.83594 13.3594 5.59863 13.3594 5.30859V4.25391C13.3594 3.96387 13.1221 3.72656 12.832 3.72656H11.7773Z" fill="#3A536B"/>
</svg>
