<svg width="18" height="18" viewBox="0 0 18 18" fill="none" xmlns="http://www.w3.org/2000/svg">
<path d="M6.46875 9C8.33291 9 9.84375 7.4889 9.84375 5.625C9.84375 3.7611 8.33291 2.25 6.46875 2.25C4.60459 2.25 3.09375 3.7611 3.09375 5.625C3.09375 7.4889 4.60459 9 6.46875 9ZM7.80557 10.2656H5.13193C2.6078 10.2656 0.5625 12.3117 0.5625 14.8351C0.5625 15.3413 0.971719 15.75 1.47639 15.75H11.4601C11.9663 15.75 12.375 15.3413 12.375 14.8351C12.375 12.3117 10.3289 10.2656 7.80557 10.2656ZM13.195 10.6875H11.2478C12.4594 11.6815 13.2188 13.1687 13.2188 14.8351C13.2188 15.1726 13.1186 15.4837 12.9551 15.75H16.5938C17.0604 15.75 17.4375 15.3703 17.4375 14.8825C17.4375 12.5754 15.5496 10.6875 13.195 10.6875ZM11.9531 9C13.5853 9 14.9062 7.679 14.9062 6.04688C14.9062 4.41475 13.5853 3.09375 11.9531 3.09375C11.291 3.09375 10.6864 3.31932 10.1939 3.68728C10.4977 4.27052 10.6875 4.92363 10.6875 5.625C10.6875 6.56156 10.3729 7.42166 9.85456 8.12224C10.3896 8.6625 11.1305 9 11.9531 9Z" fill="#3A536B"/>
</svg>
