<svg width="18" height="18" viewBox="0 0 18 18" fill="none" xmlns="http://www.w3.org/2000/svg">
<g clip-path="url(#clip0_403_164)">
<path d="M6.20678 14.1502C6.20678 14.22 6.12853 14.2758 6.02986 14.2758C5.91759 14.2863 5.83934 14.2305 5.83934 14.1502C5.83934 14.0804 5.91759 14.0246 6.01626 14.0246C6.11832 14.0141 6.20678 14.07 6.20678 14.1502ZM5.14869 13.9932C5.12487 14.063 5.19292 14.1432 5.29499 14.1642C5.38344 14.1991 5.48551 14.1642 5.50592 14.0944C5.52634 14.0246 5.46169 13.9444 5.35963 13.9129C5.27117 13.8885 5.17251 13.9234 5.14869 13.9932ZM6.65247 13.9339C6.55381 13.9583 6.48576 14.0246 6.49597 14.1049C6.50617 14.1747 6.59463 14.22 6.6967 14.1956C6.79536 14.1712 6.86341 14.1049 6.8532 14.0351C6.84299 13.9688 6.75113 13.9234 6.65247 13.9339ZM8.89113 0.5625C4.17225 0.5625 0.5625 4.23684 0.5625 9.07664C0.5625 12.9464 2.93725 16.2578 6.32926 17.4233C6.76474 17.5035 6.91784 17.2279 6.91784 17.0011C6.91784 16.7847 6.90764 15.5913 6.90764 14.8586C6.90764 14.8586 4.52608 15.382 4.02596 13.8187C4.02596 13.8187 3.6381 12.8033 3.08014 12.5416C3.08014 12.5416 2.30103 11.9938 3.13458 12.0042C3.13458 12.0042 3.98173 12.074 4.44783 12.9045C5.19292 14.2514 6.44153 13.8641 6.92805 13.6338C7.0063 13.0755 7.22745 12.6882 7.4724 12.4579C5.57056 12.2415 3.65171 11.9589 3.65171 8.60208C3.65171 7.64249 3.91028 7.16096 4.45464 6.54682C4.36618 6.32001 4.07699 5.38485 4.54309 4.17752C5.25416 3.95071 6.89062 5.11966 6.89062 5.11966C7.57107 4.92425 8.30255 4.82306 9.02722 4.82306C9.75189 4.82306 10.4834 4.92425 11.1638 5.11966C11.1638 5.11966 12.8003 3.94722 13.5113 4.17752C13.9774 5.38834 13.6883 6.32001 13.5998 6.54682C14.1442 7.16445 14.4776 7.64598 14.4776 8.60208C14.4776 11.9693 12.4737 12.238 10.5718 12.4579C10.8848 12.7335 11.1502 13.2569 11.1502 14.0769C11.1502 15.2529 11.14 16.708 11.14 16.9941C11.14 17.2209 11.2965 17.4966 11.7286 17.4163C15.1308 16.2578 17.4375 12.9464 17.4375 9.07664C17.4375 4.23684 13.61 0.5625 8.89113 0.5625ZM3.86946 12.5974C3.82523 12.6323 3.83543 12.7126 3.89327 12.7789C3.94771 12.8347 4.02596 12.8591 4.07019 12.8138C4.11442 12.7789 4.10421 12.6986 4.04637 12.6323C3.99194 12.5765 3.91368 12.5521 3.86946 12.5974ZM3.50202 12.3148C3.4782 12.3602 3.51222 12.416 3.58027 12.4509C3.6347 12.4858 3.70275 12.4753 3.72656 12.4265C3.75038 12.3811 3.71636 12.3253 3.64831 12.2904C3.58027 12.2694 3.52583 12.2799 3.50202 12.3148ZM4.60433 13.557C4.5499 13.6024 4.57031 13.7071 4.64856 13.7734C4.72681 13.8536 4.82548 13.8641 4.86971 13.8083C4.91394 13.7629 4.89352 13.6582 4.82548 13.5919C4.75063 13.5117 4.64856 13.5012 4.60433 13.557ZM4.21648 13.0441C4.16205 13.079 4.16205 13.1697 4.21648 13.25C4.27092 13.3302 4.36278 13.3651 4.40701 13.3302C4.46144 13.2849 4.46144 13.1941 4.40701 13.1139C4.35938 13.0336 4.27092 12.9987 4.21648 13.0441Z" fill="#3A536B"/>
</g>
<defs>
<clipPath id="clip0_403_164">
<rect width="18" height="18" fill="white"/>
</clipPath>
</defs>
</svg>
